<svg width="65.000000" height="64.000000" viewBox="0 0 65 64" fill="none" xmlns="http://www.w3.org/2000/svg" xmlns:xlink="http://www.w3.org/1999/xlink">
	<desc>
			Created with Pixso.
	</desc>
	<defs/>
	<path id="Star" d="M26.64 1.66C24.84 3.22 22.46 3.92 20.1 3.58C16.07 2.99 12.23 5.46 11.09 9.37C10.42 11.66 8.79 13.54 6.63 14.52C2.92 16.2 1.02 20.36 2.18 24.27C2.85 26.55 2.5 29.01 1.21 31.01C-1 34.43 -0.35 38.96 2.73 41.61C4.53 43.17 5.56 45.43 5.56 47.81C5.56 51.88 8.55 55.34 12.58 55.91C14.93 56.24 17.03 57.59 18.31 59.59C20.5 63.02 24.89 64.31 28.59 62.61C30.75 61.62 33.24 61.62 35.4 62.61C39.1 64.31 43.49 63.02 45.68 59.59C46.96 57.59 49.06 56.24 51.41 55.91C55.44 55.34 58.43 51.88 58.43 47.81C58.43 45.43 59.46 43.17 61.26 41.61C64.34 38.96 64.99 34.43 62.78 31.01C61.49 29.01 61.14 26.55 61.81 24.27C62.97 20.36 61.07 16.2 57.36 14.52C55.2 13.54 53.57 11.66 52.9 9.37C51.76 5.46 47.92 2.99 43.89 3.58C41.53 3.92 39.15 3.22 37.35 1.66C34.28 -1.01 29.71 -1.01 26.64 1.66Z" fill="#FD4D35" fill-opacity="1.000000" fill-rule="evenodd"/>
</svg>
