<svg width="1200px" height="1200px" viewBox="0 0 1200 1200" version="1.1" xmlns="http://www.w3.org/2000/svg">
    <g id="Page-2" stroke="none" stroke-width="1" fill="none" fill-rule="evenodd">
        <g id="Artboard" transform="translate(-1799.000000, -6245.000000)">
            <g id="Group-40" transform="translate(1799.000000, 6245.000000)">
                <rect id="Rectangle-Copy-37" x="0" y="0" width="1200" height="1200"></rect>
                <g id="资源-138" transform="translate(123.000000, 134.000000)" fill-rule="nonzero">
                    <path d="M643.396811,802.390192 L626.055684,794.849959 C626.984799,783.755432 620.744255,773.300797 610.535376,768.849157 L610.535376,768.849157 L638.107768,705.23386 C642.49147,694.632926 642.49147,682.727106 638.107768,672.126172 C633.885052,661.439255 625.589086,652.866189 615.044069,648.292103 L567.269264,627.6648 C561.813191,625.243207 555.897332,624.030963 549.928137,624.111357 C532.635285,624.051164 516.960622,634.269491 510.043545,650.112159 L489.407604,697.866966 L481.430685,694.400192 C478.202188,692.993012 474.721424,692.25587 471.19942,692.233459 C460.803034,692.212297 451.392552,698.381081 447.268665,707.92061 L443.80044,715.894189 L253.048043,633.298307 L256.516268,625.324727 C262.19627,612.16125 256.145635,596.885915 242.990189,591.177007 L235.01327,587.710233 L255.649212,540.042095 C260.226856,529.481407 260.413574,517.534257 256.168181,506.835792 C251.922788,496.137326 243.59406,487.56647 233.019041,483.013669 L185.330942,462.386365 C163.374363,453.176781 138.096365,463.392092 128.712162,485.267071 L101.226476,548.969037 C97.9798001,547.523531 94.4626349,546.78494 90.908505,546.802304 C83.6460436,546.914569 76.7613225,550.056961 71.919971,555.469238 L54.5788439,548.015675 C51.3256371,546.599945 47.8087358,545.890951 44.2608734,545.93561 C33.8215763,545.71489 24.2620297,551.75536 19.9832956,561.276084 L13.1335504,577.223243 C7.45354825,590.38672 13.5041832,605.662055 26.6596295,611.370963 L44.0007565,618.911196 C43.0716416,630.005724 49.312186,640.460359 59.5210651,644.911998 L28.6538591,716.067528 C24.0762143,726.628216 23.8894967,738.575366 28.1348899,749.273831 C32.3802831,759.972297 40.7090102,768.543153 51.2840298,773.095955 L98.9721291,793.723258 C109.544597,798.39149 121.544238,798.646488 132.305634,794.431609 C143.067029,790.21673 151.699138,781.880967 156.284554,771.275898 L180.38872,715.634181 L188.278933,719.100955 C191.54051,720.489909 195.051708,721.197753 198.596904,721.181019 C208.99329,721.202181 218.403772,715.033397 222.527659,705.493868 L225.909179,697.520289 L416.661576,780.116171 L413.280056,788.089751 C410.387021,794.469365 410.191402,801.745895 412.737496,808.27161 C415.283591,814.797325 420.356011,820.02018 426.806135,822.757487 L434.783054,826.137592 L410.678887,881.865978 C401.192918,903.812915 411.280497,929.292783 433.222352,938.807736 L480.997157,959.435039 C502.953285,968.917038 528.443822,958.833681 537.962759,936.90101 L568.916671,865.312134 C572.178248,866.701088 575.689446,867.408932 579.234642,867.392198 C586.527428,867.304073 593.448201,864.159584 598.309881,858.725264 L615.651008,866.265497 C628.819998,871.943121 644.101729,865.895019 649.813028,852.745079 L656.749479,836.797921 C659.569952,830.468406 659.746285,823.275391 657.239339,816.815386 C654.732394,810.355382 649.749567,805.162816 643.396811,802.390192 L643.396811,802.390192 Z" id="Path" fill="#AEAEAE"></path>
                    <path d="M929.435855,228.988202 L929.435855,228.988202 C939.311509,223.704565 884.302385,135.181985 880.577358,137.174176 L880.577358,137.174176 L848.091654,76.0225702 C842.702474,65.858807 833.490463,58.256481 822.487943,54.8927907 C811.485423,51.5291004 799.596523,52.6804562 789.444131,58.0928501 L743.617633,82.5188456 C722.498168,93.7395636 714.470704,119.951363 725.685524,141.071941 L750.114773,186.978954 L742.404833,191.049954 C729.92139,197.781351 725.140992,213.277028 731.662894,225.86999 L735.734435,233.578903 L552.168555,331.369502 L548.097013,323.747206 C544.860495,317.656551 539.335069,313.102264 532.738001,311.087664 C526.140932,309.073064 519.013475,309.763439 512.925825,313.006697 L505.302513,317.077696 L480.873264,271.170684 C469.651052,250.054031 443.435761,242.027637 422.31237,253.240963 L376.399243,277.840193 C355.349115,289.026751 347.29616,315.117947 358.380506,336.220055 L390.866209,397.458278 C384.785102,400.691127 380.236083,406.205299 378.218442,412.789488 C377.138709,416.500133 376.872768,420.400092 377.438785,424.222932 L360.806105,432.884633 C354.651748,436.150208 350.06651,441.749847 348.079426,448.426864 C346.092342,455.103881 346.869837,462.299049 350.237423,468.397605 L358.380506,483.555581 C365.137919,495.905469 380.50205,500.62931 393.031923,494.209473 L410.357631,485.721006 C418.459888,493.145481 430.357071,494.671447 440.071221,489.532154 L476.628466,558.392674 C484.239207,572.376354 498.909485,581.057607 514.831653,580.999712 C521.868039,580.989236 528.795939,579.264925 535.016103,575.975926 L580.929231,551.54993 C602.048696,540.329212 610.076159,514.117413 598.861339,492.996835 L570.360548,439.467525 L577.98386,435.396526 C584.090335,432.175471 588.663982,426.657298 590.695531,420.059707 C592.727079,413.462116 592.04954,406.327413 588.812428,400.230022 L584.740886,392.607725 L768.306767,295.163594 L772.378309,302.785891 C776.89516,311.267475 785.724547,316.564402 795.334872,316.557994 C799.564019,316.549187 803.727123,315.50855 807.462868,313.526399 L815.172808,309.4554 L843.500342,362.898092 C848.904535,373.046861 858.123059,380.630451 869.124184,383.977467 C880.125309,387.324483 892.006024,386.160191 902.147865,380.741196 L947.974363,356.401817 C958.13948,351.013354 965.742819,341.80257 969.106957,330.801515 C972.471096,319.80046 971.319586,307.913144 965.906472,297.762104 L929.435855,228.988202 Z" id="Path" fill="#AEAEAE"></path>
                    <path d="M630.920547,799.830756 C626.980853,808.491272 616.808617,812.362346 608.115037,808.50946 L19.1605639,553.876267 C10.5074402,549.933207 6.63966997,539.752281 10.4892672,531.051274 L17.4263046,515.169244 C21.3659987,506.508728 31.5382345,502.637654 40.231815,506.49054 L628.839436,761.036946 C637.49256,764.980006 641.36033,775.160932 637.510733,783.861939 L630.920547,799.830756 Z" id="Path" fill="#EAEAEA"></path>
                    <polygon id="Rectangle" fill="#D4D6D6" transform="translate(318.569850, 669.066229) rotate(-66.610000) translate(-318.569850, -669.066229) " points="305.561144 331.099332 331.557008 331.100161 331.578557 1007.03313 305.582692 1007.0323"></polygon>
                    <path d="M614.052645,817.999841 C610.540882,818.00481 607.064565,817.29667 603.833743,815.91821 L15.6407063,561.091847 C2.50115716,555.378638 -3.5421662,540.091795 2.1309722,526.918401 L8.9724401,510.699024 C13.0913435,501.152308 22.4904544,494.978876 32.8742773,495.000054 C36.3920246,495.022483 39.868583,495.760179 43.0931787,497.16842 L631.286216,752.254987 C644.459368,757.934863 650.54525,773.231306 644.882551,786.428433 L637.954482,802.387607 C633.809251,811.900369 624.415818,818.035984 614.052645,817.999841 Z M32.8742773,512.607186 C29.4198864,512.595138 26.288742,514.640343 24.9069982,517.811264 L17.9789295,533.770437 C16.9971105,535.904796 16.922038,538.346815 17.7708926,540.537627 C18.6197472,542.728439 20.3198673,544.480512 22.4821742,545.392878 L610.675211,799.959037 C612.78739,800.886854 615.181848,800.932493 617.327744,800.085834 C619.47364,799.239175 621.193675,797.570172 622.106525,795.448836 L628.947993,779.576397 C629.874379,777.460956 629.919947,775.062799 629.074594,772.913588 C628.229241,770.764377 626.562812,769.041685 624.444748,768.127425 L36.2517108,513.301063 C35.1837136,512.845389 34.0351441,512.609421 32.8742773,512.607186 L32.8742773,512.607186 Z" id="Shape" fill="#141325"></path>
                    <path d="M151.902548,576.149259 L241.21709,576.153726 C250.05316,576.154045 257.216144,583.316989 257.216513,592.153059 L257.219835,612.148413 C257.220203,620.984969 250.057058,628.148711 241.220502,628.14908 C241.220087,628.14908 241.219672,628.14908 241.219258,628.14908 L151.904715,628.143368 C143.068645,628.143049 135.905661,620.980105 135.905293,612.144035 L135.90197,592.148681 C135.901602,583.312125 143.064747,576.148383 151.901303,576.148014 C151.901718,576.148014 151.902133,576.148014 151.902548,576.148014 Z" id="Rectangle" fill="#EAEAEA" transform="translate(196.560903, 602.148547) rotate(-66.610000) translate(-196.560903, -602.148547) "></path>
                    <path d="M49.8448058,524.612784 L104.498196,524.61612 C113.334256,524.616454 120.497224,531.779393 120.497592,540.615453 L120.500968,560.610806 C120.501337,569.447362 113.338191,576.611105 104.501635,576.611473 C104.501211,576.611473 104.500788,576.611473 104.500364,576.611473 L49.8469735,576.606867 C41.010914,576.606533 33.8479462,569.443593 33.8475778,560.607534 L33.8442016,540.61218 C33.8438332,531.775624 41.0069786,524.611881 49.8435345,524.611513 C49.8439583,524.611513 49.8443821,524.611513 49.8448059,524.611513 Z" id="Rectangle" fill="#EAEAEA" transform="translate(77.172585, 550.611493) rotate(-66.610000) translate(-77.172585, -550.611493) "></path>
                    <path d="M543.06703,737.783337 L597.720422,737.786674 C606.556481,737.787008 613.719449,744.949947 613.719817,753.786007 L613.723195,773.78136 C613.723563,782.617916 606.560418,789.781658 597.723862,789.782027 C597.723438,789.782027 597.723014,789.782027 597.72259,789.782027 L543.069199,789.777419 C534.233139,789.777085 527.070172,782.614145 527.069803,773.778086 L527.066426,753.782733 C527.066057,744.946177 534.229203,737.782434 543.065759,737.782066 C543.066182,737.782066 543.066606,737.782066 543.06703,737.782066 Z" id="Rectangle" fill="#EAEAEA" transform="translate(570.394810, 763.782046) rotate(-66.600000) translate(-570.394810, -763.782046) "></path>
                    <path d="M194.088523,629.716381 L178.059201,622.785447 C169.36587,618.849219 165.480128,608.685932 169.347612,600 L155.496187,631.795662 C151.628703,640.481594 155.514445,650.64488 164.207775,654.581109 L180.237098,661.512043 C188.971073,665.358254 199.190575,661.493886 203.148575,652.848375 L217,621.052713 C213.042,629.698224 202.822498,633.562592 194.088523,629.716381 L194.088523,629.716381 Z" id="Path" fill="#D4D6D6"></path>
                    <path d="M406.332601,686.229162 L495.647145,686.233631 C504.483215,686.23395 511.646199,693.396894 511.646567,702.232964 L511.649891,722.228317 C511.650259,731.064873 504.487114,738.228616 495.650558,738.228984 C495.650143,738.228984 495.649728,738.228984 495.649313,738.228984 L406.334769,738.22327 C397.498699,738.222951 390.335715,731.060007 390.335347,722.223938 L390.332023,702.228585 C390.331655,693.392029 397.4948,686.228286 406.331356,686.227917 C406.331771,686.227917 406.332186,686.227917 406.332601,686.227917 Z" id="Rectangle" fill="#EAEAEA" transform="translate(450.990957, 712.228451) rotate(-66.600000) translate(-450.990957, -712.228451) "></path>
                    <path d="M448.616541,739.670547 L432.77594,732.816824 C424.18496,728.875176 420.344967,718.697893 424.166918,710 L410.478572,741.839447 C406.656621,750.53734 410.496614,760.714622 419.087594,764.656271 L434.928196,771.509994 C443.559342,775.361501 453.658524,771.491812 457.569925,762.834395 L471,730.647925 C467.221315,739.295558 457.270949,743.306484 448.616541,739.670547 Z" id="Path" fill="#D4D6D6"></path>
                    <path d="M187.259866,670.995932 C183.598502,671.060584 179.964707,670.353893 176.596298,668.922109 L160.730989,662.009366 C147.543414,656.350795 141.450869,641.111731 147.119768,627.964107 L181.798039,548.64038 C185.921452,539.129474 195.330853,532.9792 205.726045,533.000298 C209.279767,532.982987 212.796528,533.719361 216.042831,535.160531 L231.90814,541.986864 C238.319237,544.62237 243.408806,549.700681 246.046029,556.09348 C248.683253,562.48628 248.649705,569.664091 245.95284,576.032124 L211.274569,655.355851 C207.138757,664.895706 197.68651,671.051681 187.259866,670.995932 Z M205.812741,550.022928 C202.354568,550.010926 199.219996,552.048459 197.836739,555.207486 L163.158468,634.531213 C162.161179,636.699753 162.107713,639.182742 163.010736,641.391932 C163.91376,643.601122 165.692925,645.339949 167.92673,646.196467 L183.878735,653.0228 C188.260062,654.890486 193.332462,652.883665 195.235869,648.529517 L229.91414,569.20579 C231.788015,564.838936 229.774543,559.783292 225.405964,557.886173 L209.45396,550.97343 C208.304414,550.484065 207.062288,550.248251 205.812741,550.282156 L205.812741,550.022928 Z" id="Shape" fill="#141325"></path>
                    <path d="M74.9368259,603.999665 C71.402776,604.018097 67.905993,603.276444 64.6830433,601.824881 L48.6940942,594.952564 C35.5096946,589.222445 29.445743,573.890355 35.1382461,560.677971 L55.8196041,512.745735 C59.952567,503.170763 69.3837607,496.979059 79.8030278,497.0003 C83.3649798,496.982872 86.8898858,497.724207 90.1437068,499.175084 L106.045759,506.047401 C112.525636,508.778263 117.628958,514.013541 120.19771,520.565278 C122.766462,527.117015 122.582837,534.429685 119.688504,540.843942 L98.833353,588.25423 C94.7128993,597.800187 85.3245377,603.986183 74.9368259,603.999665 L74.9368259,603.999665 Z M79.8030278,514.398571 C76.3368456,514.386488 73.1950135,516.437746 71.8085532,519.618052 L51.1271951,567.550288 C49.2155799,571.876045 51.1069837,576.938177 55.3851218,578.946155 L71.2871744,585.905463 C73.4065628,586.836027 75.8091943,586.8818 77.9624149,586.032636 C80.1156356,585.183471 81.841542,583.509528 82.7575075,581.381913 L103.438866,533.449677 C105.306646,529.029598 103.245804,523.930258 98.833353,522.05381 L82.8444039,515.094502 C81.8808517,514.680745 80.8504563,514.444969 79.8030278,514.398571 Z" id="Shape" fill="#141325"></path>
                    <path d="M567.522009,816.999187 C564.06143,816.872184 560.661581,816.050288 557.524206,814.582268 L541.751811,807.763103 C535.340198,805.036876 530.298063,799.835161 527.76717,793.33586 C525.236277,786.836559 525.430728,779.589481 528.30649,773.235689 L548.905411,726.451044 C553.006354,717.132054 562.180376,711.085591 572.348534,711.000026 C575.843554,710.995081 579.303296,711.699824 582.518713,713.071671 L598.377296,719.977153 C604.701193,722.706774 609.676644,727.850058 612.200611,734.266758 C614.724578,740.683458 614.588526,747.843415 611.822617,754.159293 L591.309884,801.720806 C587.106515,811.08664 577.774589,817.080312 567.522009,816.999187 L567.522009,816.999187 Z M572.348534,728.263733 C568.879408,728.217014 565.720517,730.258096 564.333055,733.442845 L543.820322,780.918039 C542.898352,783.023332 542.853002,785.409984 543.694324,787.548884 C544.535646,789.687784 546.19413,791.402212 548.302095,792.312086 L564.160679,799.13125 C568.516348,800.996974 573.559041,798.992261 575.451301,794.642686 L595.964034,747.167492 C596.886003,745.062199 596.931354,742.675547 596.090032,740.536647 C595.248709,738.397747 593.590226,736.683319 591.48226,735.773445 L575.709865,728.954281 C574.654047,728.478445 573.506136,728.24262 572.348534,728.263733 L572.348534,728.263733 Z" id="Shape" fill="#141325"></path>
                    <path d="M442.077804,780.999247 C438.527394,781.015942 435.011032,780.309762 431.744658,778.924075 L415.854189,772.0933 C409.473654,769.390999 404.438283,764.267261 401.863179,757.85676 C399.288076,751.446258 399.385742,744.277999 402.13455,737.939422 L436.867814,658.564082 C441.024165,649.080836 450.442795,642.964259 460.833767,643.000289 C464.384177,642.983595 467.900539,643.689774 471.166913,645.075462 L487.057382,651.906237 C493.532538,654.620591 498.632142,659.824223 501.199023,666.336357 C503.765903,672.84849 503.582413,680.116958 500.690188,686.492442 L465.956923,765.867783 C461.683228,775.153185 452.335087,781.076815 442.077804,780.999247 L442.077804,780.999247 Z M460.660101,659.94753 C457.196443,659.93552 454.0569,661.974379 452.67145,665.13546 L417.938185,744.510801 C417.069697,746.615902 417.069697,748.977079 417.938185,751.08218 C418.779893,753.211297 420.434803,754.921385 422.540343,755.837783 L438.517645,762.668559 C442.90592,764.537459 447.986363,762.529333 449.892789,758.172352 L484.626053,678.797011 C486.302339,674.56928 484.405206,669.770964 480.284395,667.815891 L464.393927,660.985116 C463.223256,660.459012 461.942455,660.221733 460.660101,660.293392 L460.660101,659.94753 Z" id="Shape" fill="#141325"></path>
                    <path d="M137.310708,718.087666 C129.693575,735.670368 109.270909,743.748795 91.6923156,736.13256 L43.9057489,715.485037 C26.3285835,707.865506 18.2527003,687.436406 25.8665368,669.852276 L125.689292,438.912334 C133.306425,421.329632 153.729091,413.251205 171.307684,420.86744 L219.094251,441.775226 C236.671416,449.394757 244.7473,469.823856 237.133463,487.407987 L137.310708,718.087666 Z" id="Path" fill="#415E6D"></path>
                    <path d="M384.609161,683.128702 L641.225843,683.140115 C658.898013,683.140734 673.224008,697.466655 673.22472,715.138825 L673.231854,772.461145 C673.232567,790.134257 658.906256,804.461723 641.233144,804.462435 C641.23234,804.462435 641.231536,804.462435 641.230732,804.462435 L384.614051,804.44861 C366.941881,804.44799 352.615886,790.12207 352.615173,772.4499 L352.608039,715.127579 C352.607327,697.454467 366.933637,683.127002 384.606749,683.12629 C384.607553,683.12629 384.608357,683.12629 384.609161,683.12629 Z" id="Rectangle" fill="#415E6D" transform="translate(512.919947, 743.794362) rotate(-66.600000) translate(-512.919947, -743.794362) "></path>
                    <path d="M105.01724,747.999694 C99.0688696,748.019995 93.1802819,746.810454 87.719681,744.446702 L40.0649067,723.822015 C29.5319752,719.253514 21.2436858,710.676898 17.0258583,699.9815 C12.8080309,689.286102 13.0066925,677.349366 17.5780804,666.800824 L117.384994,436.116306 C121.944504,425.562604 130.504241,417.25797 141.178589,413.031825 C151.852937,408.80568 163.766181,409.004734 174.293962,413.585136 L221.862249,434.209823 C232.4107,438.762046 240.718501,447.331816 244.953228,458.028924 C249.187955,468.726032 249.001707,480.671666 244.435563,491.231014 L144.888113,721.828873 C138.028652,737.76639 122.339295,748.064719 105.01724,747.999694 Z M156.909916,427.363813 C146.602494,427.411673 137.300804,433.568337 133.21226,443.048974 L33.7512978,673.733491 C31.1324486,680.088188 31.1324486,687.223556 33.7512978,693.578253 C36.2866756,699.996102 41.2651511,705.140279 47.5893448,707.87688 L94.8981679,728.414908 C98.0918065,729.810485 101.533255,730.547287 105.01724,730.581366 C115.418882,730.637276 124.848464,724.463557 128.974359,714.896206 L228.348833,484.298347 C234.014565,471.13654 227.979132,455.863142 214.856738,450.154958 L167.807378,429.530272 C164.469759,428.013695 160.833047,427.273068 157.169379,427.363813 L156.909916,427.363813 Z" id="Shape" fill="#141325"></path>
                    <path d="M487.041013,912.996247 C481.083913,913.076655 475.18004,911.864193 469.735022,909.442163 L422.057016,888.811138 C400.159619,879.294469 390.092478,853.810005 399.559228,831.859108 L499.414797,601.103698 C508.914447,579.167071 534.353337,569.081895 556.264978,578.565604 L603.942984,599.196629 C625.840381,608.713298 635.907522,634.197762 626.440772,656.148659 L526.844793,886.904069 C519.968013,902.783527 504.319444,913.041478 487.041013,912.996247 L487.041013,912.996247 Z M538.958987,592.261831 C528.572938,592.190993 519.144464,598.328776 514.990189,607.865127 L415.6538,838.707221 C412.766626,845.087986 412.571404,852.36583 415.112339,858.892722 C417.653275,865.419614 422.715418,870.643411 429.152473,873.381212 L476.830478,894.012237 C489.972785,899.690886 505.223554,893.641692 510.923281,880.48938 L610.60579,649.300546 C613.492964,642.919781 613.688186,635.641938 611.147251,629.115045 C608.606315,622.588153 603.544172,617.364356 597.107117,614.626555 L549.342581,594.428955 C546.141213,593.062717 542.698326,592.355218 539.218577,592.348516 L538.958987,592.261831 Z" id="Shape" fill="#141325"></path>
                    <path d="M122.467097,664.631859 L74.770082,643.956002 C66.2795019,640.293817 59.5999955,633.377345 56.218284,624.746052 C52.8365724,616.114759 53.0332986,606.484942 56.7646754,598 L25.861165,669.757386 C18.2615967,687.365647 26.3223458,707.82278 43.8665716,715.452768 L91.5635863,736.128625 C109.109237,743.755312 129.493632,735.665799 137.09649,718.058969 L168,646.562202 C160.397142,664.169032 140.012748,672.258545 122.467097,664.631859 L122.467097,664.631859 Z" id="Path" fill="#2D4552"></path>
                    <path d="M504.487226,829.427791 L456.811297,808.674534 C439.274828,801.048027 431.217642,780.600227 438.813851,763 L407.837476,834.724648 C404.194864,843.187485 404.054039,852.756403 407.446022,861.323505 C410.838005,869.890607 417.484525,876.753067 425.921449,880.399182 L473.510851,901.152439 C481.943717,904.807998 491.478746,904.949324 500.015507,901.545285 C508.552268,898.141246 515.390424,891.471103 519.023625,883.004193 L550,811.279545 C546.366798,819.746455 539.528642,826.416598 530.991881,829.820637 C522.45512,833.224676 512.920091,833.08335 504.487226,829.427791 Z" id="Path" fill="#2D4552"></path>
                    <path d="M522.176492,809 L506,802.1227 L519.978599,770.573084 C521.122273,767.596803 523.852542,765.480792 527.077053,765.071646 C530.301565,764.6625 533.493724,766.027036 535.376382,768.619317 C537.259039,771.211598 537.524738,774.60828 536.067175,777.450384 L522.176492,809 Z" id="Path" fill="#FFFFFF" opacity="0.5"></path>
                    <path d="M548.707192,734.999723 C547.509185,735.009223 546.322057,734.774091 545.219894,734.309001 C542.983322,733.533279 541.161973,731.889319 540.175165,729.7556 C539.188357,727.621881 539.121125,725.18227 539.988947,722.998423 L564.574397,667.740635 C574.949108,643.997055 574.774744,643.910714 566.928323,640.543443 L534.932365,626.815336 C531.818521,625.775321 529.559719,623.089668 529.089807,619.868694 C528.619896,616.64772 530.018718,613.438711 532.707965,611.568353 C535.397212,609.697995 538.919946,609.484086 541.819779,611.015063 L573.902919,624.570489 C597.878092,634.844983 590.641949,651.42232 580.528785,674.475178 L556.379247,729.905646 C555.014911,732.916039 552.037347,734.893076 548.707192,734.999723 Z" id="Path" fill="#FFFFFF" opacity="0.5"></path>
                    <path d="M139.701421,632.999947 C138.512983,632.987001 137.337449,632.751993 136.235447,632.307044 C134.116196,631.394067 132.448834,629.673792 131.603007,627.527598 C130.757181,625.381403 130.802774,622.986611 131.72968,620.874139 L183.719299,501.694764 C194.030574,477.789599 193.943924,477.789599 186.145482,474.411695 L154.345164,460.640241 C151.497135,459.41796 149.517801,456.76976 149.152758,453.693192 C148.787715,450.616623 150.092422,447.579091 152.575408,445.724803 C155.058394,443.870516 158.342435,443.481183 161.190464,444.703464 L192.990781,458.474918 C216.819357,468.781855 209.62746,485.498148 199.662783,508.537184 L147.673163,627.803172 C146.290645,630.969643 143.157747,633.011978 139.701421,632.999947 Z" id="Path" fill="#FFFFFF" opacity="0.5"></path>
                    <path d="M962.990924,112.298062 C967.45241,120.746238 964.235113,131.211289 955.798044,135.694677 L389.553753,436.991088 C381.104888,441.45221 370.638983,438.235175 366.155229,429.798795 L358.009076,414.461014 C353.54759,406.012839 356.764887,395.547787 365.201956,391.064399 L931.446247,90.0279509 C939.872256,85.5534787 950.330381,88.7293909 954.844771,97.1335895 L962.990924,112.298062 Z" id="Path" fill="#EAEAEA"></path>
                    <polygon id="Rectangle" fill="#D4D6D6" transform="translate(666.661102, 275.346914) rotate(-28.000000) translate(-666.661102, -275.346914) " points="328.696005 262.336654 1004.62526 262.361168 1004.6262 288.357175 328.696948 288.332661"></polygon>
                    <path d="M381.179434,447.999994 C371.571268,448.006398 362.743865,442.712476 358.228028,434.235704 L350.086775,418.913192 C346.788662,412.86802 346.100511,405.739668 348.181375,399.175719 C350.178426,392.562928 354.728855,387.017785 360.826301,383.766639 L926.730017,83.029881 C930.475869,81.077518 934.630928,80.0392475 938.855288,80.0000058 C948.463454,79.9936021 957.290857,85.2875237 961.806694,93.7642961 L969.947947,109.086808 C973.190909,115.170194 973.88122,122.292658 971.866805,128.885106 C969.852389,135.477554 965.298518,140.999109 959.208421,144.233361 L393.304705,444.970119 C389.569799,446.951145 385.407631,447.991192 381.179434,447.999994 Z M938.508852,97.3135785 C937.087242,97.3206788 935.689239,97.677446 934.438225,98.3523929 L368.967554,399.089151 C364.735439,401.313232 363.107162,406.544489 365.329973,410.775813 L373.471226,426.098325 C375.727064,430.296241 380.952981,431.882616 385.163452,429.647607 L951.067168,128.910849 C953.104692,127.839764 954.631748,126.001939 955.311013,123.803345 C955.987085,121.616423 955.769103,119.250883 954.704749,117.224187 L946.563496,101.901675 C944.992472,98.943852 941.855586,97.1570146 938.508852,97.3135785 Z" id="Shape" fill="#141325"></path>
                    <path d="M528.08997,268.310059 L548.084527,268.311945 C556.920629,268.312266 564.083626,275.475262 564.083946,284.311365 L564.08951,373.626067 C564.08983,382.462623 556.926646,389.626327 548.09009,389.626648 C548.089703,389.626648 548.089316,389.626648 548.088929,389.626648 L528.094373,389.6236 C519.25827,389.623279 512.095274,382.460283 512.094953,373.62418 L512.08939,284.309478 C512.089069,275.472922 519.252253,268.309218 528.088809,268.308898 C528.089196,268.308898 528.089583,268.308898 528.08997,268.308898 Z" id="Rectangle" fill="#EAEAEA" transform="translate(538.089450, 328.967773) rotate(-28.020000) translate(-538.089450, -328.967773) "></path>
                    <path d="M413.30518,346.782736 L433.299738,346.784622 C442.13584,346.784942 449.298837,353.947939 449.299157,362.784042 L449.303461,417.437398 C449.303781,426.273954 442.140597,433.437658 433.304041,433.437978 C433.303654,433.437978 433.303268,433.437978 433.302881,433.437978 L413.308323,433.434932 C404.47222,433.434611 397.309224,426.271615 397.308903,417.435512 L397.3046,362.782156 C397.304279,353.9456 404.467463,346.781896 413.304019,346.781575 C413.304406,346.781575 413.304793,346.781575 413.30518,346.781575 Z" id="Rectangle" fill="#EAEAEA" transform="translate(423.304030, 390.109777) rotate(-28.000000) translate(-423.304030, -390.109777) "></path>
                    <path d="M887.773747,94.394308 L907.768305,94.3961934 C916.604408,94.3965138 923.767405,101.55951 923.767725,110.395613 L923.772028,165.048969 C923.772348,173.885525 916.609164,181.049228 907.772608,181.049549 C907.772221,181.049549 907.771834,181.049549 907.771448,181.049549 L887.776889,181.046503 C878.940786,181.046183 871.77779,173.883186 871.777469,165.047083 L871.773167,110.393728 C871.772846,101.557172 878.936031,94.3934681 887.772587,94.3931477 C887.772973,94.3931477 887.77336,94.3931477 887.773747,94.3931477 Z" id="Rectangle" fill="#EAEAEA" transform="translate(897.772597, 137.721348) rotate(-27.990000) translate(-897.772597, -137.721348) "></path>
                    <path d="M557.661452,348.18013 L542.352555,356.340924 C533.920289,360.810429 523.474945,357.587349 519,349.135116 L535.260298,379.781505 C539.735243,388.233738 550.180586,391.456818 558.612852,386.987313 L573.92175,378.826518 C582.191707,374.341098 585.379567,364.047521 581.100498,355.646389 L564.8402,325 C569.119269,333.401133 565.93141,343.69471 557.661452,348.18013 L557.661452,348.18013 Z" id="Path" fill="#D4D6D6"></path>
                    <path d="M772.88376,138.076768 L792.878317,138.078655 C801.714419,138.078976 808.877415,145.241972 808.877736,154.078075 L808.883299,243.392777 C808.88362,252.229333 801.720436,259.393037 792.88388,259.393357 C792.883493,259.393357 792.883106,259.393357 792.882719,259.393357 L772.888162,259.390309 C764.05206,259.389989 756.889064,252.226993 756.888743,243.39089 L756.88318,154.076188 C756.882859,145.239632 764.046043,138.075928 772.882599,138.075607 C772.882986,138.075607 772.883373,138.075607 772.88376,138.075607 Z" id="Rectangle" fill="#EAEAEA" transform="translate(782.883240, 198.734482) rotate(-28.020000) translate(-782.883240, -198.734482) "></path>
                    <path d="M802.578231,217.400425 L787.388592,225.43083 C783.34956,227.59983 778.614065,228.072285 774.226465,226.744 C769.838865,225.415715 766.159569,222.395799 764,218.350258 L780.225296,248.831255 C784.690609,257.237873 795.113469,260.443559 803.527584,255.998175 L818.803528,247.881422 C822.861958,245.735732 825.899017,242.061069 827.243247,237.669859 C828.587476,233.278648 828.128151,228.532595 825.966823,224.480997 L809.741527,194 C811.902855,198.051598 812.36218,202.797651 811.01795,207.188862 C809.673721,211.580072 806.636662,215.254735 802.578231,217.400425 L802.578231,217.400425 Z" id="Path" fill="#D4D6D6"></path>
                    <path d="M550.876409,396.999791 C541.213092,397.038427 532.322548,391.721205 527.78083,383.186877 L487.059679,306.477422 C483.808614,300.372546 483.116578,293.22492 485.136027,286.609184 C487.155476,279.993448 491.720725,274.452387 497.826039,271.20671 L513.107324,263.040584 C516.893306,261.080394 521.08706,260.038813 525.349717,260.000006 C534.98189,259.99358 543.831349,265.306202 548.35847,273.81292 L589.166446,350.609249 C595.574366,363.219888 590.757433,378.642628 578.313261,385.358718 L563.031976,393.524844 C559.326792,395.664323 555.151984,396.857787 550.876409,396.999791 Z M525.349717,277.374741 C523.924556,277.381866 522.523059,277.739894 521.268919,278.417225 L505.813983,286.58335 C501.571293,288.815287 499.938948,294.065025 502.167313,298.311296 L542.97529,375.020751 C545.205989,379.265796 550.452814,380.899048 554.69673,378.669445 L570.06484,370.50332 C572.11038,369.41646 573.637143,367.556933 574.305653,365.338208 C574.974162,363.119483 574.729002,360.725477 573.624685,358.6885 L532.816708,281.979046 C531.342385,279.206741 528.487496,277.446356 525.349717,277.374741 L525.349717,277.374741 Z" id="Shape" fill="#141325"></path>
                    <path d="M427.606611,442.99998 C417.964265,443.006386 409.105458,437.71043 404.573557,429.230401 L380.062911,383.331808 C376.808412,377.246085 376.115645,370.120884 378.137227,363.525904 C380.158808,356.930923 384.728879,351.407247 390.840642,348.171753 L406.224983,340.031248 C409.973176,338.04946 414.150151,337.009014 418.393389,337.000208 C428.066912,336.961693 436.966846,342.262233 441.51336,350.769787 L465.937089,396.66838 C469.191588,402.754103 469.884355,409.879304 467.862773,416.474284 C465.841192,423.069265 461.271121,428.592941 455.159358,431.828435 L439.861934,439.96894 C436.087762,441.964449 431.879259,443.005314 427.606611,442.99998 Z M418.393389,354.320433 C416.992805,354.315864 415.615061,354.673968 414.395199,355.359646 L399.010857,363.500151 C396.999024,364.589312 395.499782,366.425429 394.838832,368.609617 C394.160355,370.797379 394.379113,373.163828 395.447252,375.191302 L419.957899,421.089896 C422.221761,425.289425 427.466269,426.87641 431.691718,424.640542 L446.989143,416.500037 C449.033915,415.42854 450.566404,413.590009 451.248085,411.390571 C451.926563,409.202809 451.707805,406.83636 450.639665,404.808886 L426.129019,358.910292 C424.608666,356.065224 421.628279,354.296841 418.393389,354.320433 L418.393389,354.320433 Z" id="Shape" fill="#141325"></path>
                    <path d="M902.622283,190.999791 C892.952422,191.03833 884.055859,185.734494 879.511065,177.221649 L855.096583,131.294508 C851.787991,125.243252 851.097653,118.107726 853.185129,111.537171 C855.188525,104.917725 859.753413,99.367002 865.870234,96.1125843 L881.161866,88.0536708 C887.267487,84.8089903 894.415985,84.1183127 901.032529,86.1337959 C907.649073,88.1492791 913.19081,92.7055635 916.436883,98.7988888 L940.938249,144.639375 C944.191515,150.728883 944.88402,157.858516 942.863204,164.457598 C940.842388,171.05668 936.274047,176.583792 930.164599,179.821298 L914.786082,187.966867 C911.039308,189.949887 906.863915,190.99098 902.622283,190.999791 L902.622283,190.999791 Z M893.325665,102.351743 C891.938827,102.368161 890.573244,102.693851 889.328988,103.304948 L874.037356,111.450516 C869.791793,113.676835 868.158342,118.913357 870.388216,123.148939 L894.889582,169.076081 C897.152587,173.278221 902.39511,174.866193 906.61896,172.628935 L922.171245,165.003296 C924.21817,163.919172 925.745967,162.064327 926.41493,159.851187 C927.083892,157.638046 926.838566,155.250067 925.733501,153.218219 L901.232134,107.377732 C899.7816,104.340002 896.699116,102.414311 893.325665,102.438398 L893.325665,102.351743 Z" id="Shape" fill="#141325"></path>
                    <path d="M795.736678,266.999994 C786.124631,267.00642 777.293661,261.693798 772.776,253.18708 L732.053286,176.477625 C728.809014,170.372749 728.118424,163.225123 730.133653,156.609387 C732.148883,149.993651 736.704593,144.45259 742.797151,141.206913 L758.133152,133.040788 C761.869567,131.052763 766.033416,130.009043 770.263322,130.000209 C779.906448,129.961573 788.778416,135.278795 793.310644,143.813123 L833.946714,220.522578 C837.190986,226.627454 837.881576,233.77508 835.866347,240.390816 C833.851117,247.006552 829.295407,252.547613 823.202849,255.79329 L807.866848,263.959416 C804.130433,265.94744 799.966584,266.991161 795.736678,266.999994 L795.736678,266.999994 Z M770.263322,147.374944 C768.867138,147.370361 767.493724,147.729592 766.277694,148.417428 L750.941694,156.583554 C746.740082,158.846283 745.15231,164.088166 747.389287,168.3115 L788.025356,245.020954 C789.109344,247.06763 790.963956,248.595241 793.176817,249.264121 C795.389678,249.933001 797.777357,249.687706 799.80895,248.582775 L815.058306,240.41665 C817.096653,239.341781 818.624326,237.497463 819.303866,235.291103 C819.953703,233.085084 819.704429,230.710704 818.610713,228.688704 L777.974644,151.979249 C776.459069,149.125227 773.488047,147.351278 770.263322,147.374944 L770.263322,147.374944 Z" id="Shape" fill="#141325"></path>
                    <path d="M590.957462,447.54828 C595.265538,455.681325 596.171808,465.196958 593.476726,473.999971 C590.781643,482.802984 584.706194,490.171561 576.588107,494.483246 L530.710045,518.948422 C522.595147,523.266132 513.100744,524.174429 504.317372,521.473319 C495.534,518.77221 488.181863,512.683176 483.879798,504.546935 L366.068399,282.45172 C357.083693,265.537789 363.477638,244.526519 380.351191,235.516754 L426.229253,211.051578 C434.344151,206.733868 443.838554,205.825571 452.621926,208.526681 C461.405298,211.22779 468.757435,217.316824 473.0595,225.453065 L590.957462,447.54828 Z" id="Path" fill="#415E6D"></path>
                    <path d="M817.512958,9.78502081 L874.834754,9.7903901 C892.506795,9.79119989 906.832583,24.1170729 906.833288,41.7891139 L906.849007,298.407689 C906.849712,316.080801 892.523395,330.40826 874.850283,330.408965 C874.849369,330.408965 874.848455,330.408965 874.84754,330.408965 L817.525744,330.400854 C799.853703,330.400044 785.527915,316.074171 785.52721,298.40213 L785.511491,41.7835546 C785.510787,24.1104426 799.837103,9.78298322 817.510215,9.78227841 C817.511129,9.78227838 817.512043,9.78227838 817.512958,9.78227842 Z" id="Rectangle" fill="#415E6D" transform="translate(846.180249, 170.095622) rotate(-27.990000) translate(-846.180249, -170.095622) "></path>
                    <path d="M514.68564,531.995892 C498.612152,532.049326 483.828212,523.222417 476.273719,509.061644 L358.089863,287.508157 C346.851374,266.428161 354.845058,240.246166 375.95184,229.004189 L421.907411,204.598688 C428.249588,201.42122 435.276259,199.846186 442.370647,200.011838 C458.413033,199.990492 473.155945,208.81282 480.695859,222.946086 L598.793006,444.066852 C604.294029,454.234273 605.492286,466.175366 602.120814,477.229748 C598.749342,488.284129 591.088232,497.533437 580.844321,502.916997 L534.88875,527.322498 C528.632339,530.488676 521.699634,532.092353 514.68564,531.995892 L514.68564,531.995892 Z M442.370647,217.320704 C438.144849,217.30282 433.978309,218.312776 430.231439,220.263212 L384.102451,244.235991 C378.005354,247.469363 373.446249,252.989418 371.429518,259.580074 C369.412787,266.170729 370.103892,273.291258 373.350581,279.37299 L491.621146,500.926477 C496.156751,509.428452 505.035329,514.725516 514.68564,514.687026 C518.90033,514.665948 523.043075,513.59504 526.738139,511.57143 L572.69371,487.165929 C585.321661,480.466484 590.163002,464.848918 583.532288,452.202019 L465.435141,230.648531 C460.784206,222.313815 451.928218,217.196379 442.370647,217.320704 L442.370647,217.320704 Z" id="Shape" fill="#141325"></path>
                    <path d="M882.704903,336.999382 C866.579216,337.085122 851.734749,328.240446 844.155798,314.030936 L726.077456,92.0603996 C714.837551,70.926074 722.88297,44.6972135 744.049674,33.4691921 L789.978676,9.11397124 C796.221878,5.75552804 803.203165,3.99830837 810.295097,4.00024159 C826.389659,3.94672818 841.192983,12.7867999 848.75738,26.9686883 L966.922544,248.939224 C978.162449,270.07355 970.11703,296.30241 948.950326,307.530432 L903.021324,331.972326 C896.761278,335.277158 889.786404,337.003008 882.704903,336.999382 Z M810.295097,21.3349184 C806.05649,21.3437314 801.884075,22.3850459 798.139973,24.3684868 L752.210971,48.810381 C746.10588,52.0485747 741.540798,57.5768605 739.521423,64.1773439 C737.502048,70.7778274 738.194059,77.9089739 741.445005,83.9997749 L859.610169,305.883637 C862.853926,311.978257 868.391711,316.535508 875.003536,318.55142 C881.615361,320.567331 888.75876,319.876507 894.860027,316.631137 L940.789029,292.275916 C946.909162,289.052765 951.49304,283.531 953.529132,276.929115 C955.565225,270.32723 954.886171,263.187883 951.641818,257.086522 L833.389831,35.1159864 C828.848279,26.6013339 819.95806,21.2963711 810.295097,21.3349184 Z" id="Shape" fill="#141325"></path>
                    <path d="M540.928369,426.306401 L494.941408,451.147405 C478.025156,460.131244 457.011002,453.737916 448,436.865992 L484.616033,505.589885 C488.92831,513.707188 496.297899,519.78205 505.10212,522.476873 C513.906341,525.171695 523.42328,524.265512 531.557441,519.957852 L577.544403,495.549618 C585.681759,491.247969 591.77163,483.896542 594.47311,475.114017 C597.17459,466.331493 596.266168,456.838008 591.947866,448.723893 L555.245065,380 C563.901731,396.749852 557.538893,417.330029 540.928369,426.306401 L540.928369,426.306401 Z" id="Path" fill="#2D4552"></path>
                    <path d="M907.928369,231.001209 L861.941408,255.500915 C853.807247,259.824719 844.290308,260.734298 835.486087,258.029376 C826.681865,255.324454 819.312277,249.226826 815,241.079102 L851.702801,310.581815 C860.713803,327.516968 881.727957,333.934255 898.644209,324.916749 L944.544403,300.503921 C952.681759,296.186151 958.77163,288.807174 961.47311,279.991736 C964.17459,271.176299 963.266168,261.647236 958.947866,253.502712 L921.984761,184 C931.031113,200.869058 924.745479,221.886714 907.928369,231.001209 Z" id="Path" fill="#2D4552"></path>
                    <path d="M895.481156,217 C892.312626,216.991549 889.405644,215.241449 887.916441,212.445789 L871.755458,182.113023 C869.904858,177.992115 871.562062,173.142496 875.548038,171.014468 C879.534014,168.88644 884.487759,170.206615 886.884889,174.035743 L902.959909,204.368508 C904.053252,206.383323 904.295976,208.751283 903.63411,210.945869 C902.972243,213.140456 901.460652,214.979751 899.435439,216.054786 C898.199685,216.647638 896.851534,216.969894 895.481156,217 L895.481156,217 Z" id="Path" fill="#FFFFFF" opacity="0.5"></path>
                    <path d="M855.349584,139.999768 C852.12615,140.023271 849.156316,138.261531 847.641348,135.427152 L819.233465,82.1087272 C815.931272,74.8452406 811.710982,68.0318071 806.675102,61.8339216 C805.895617,61.2299913 804.856304,60.3672336 799.399912,63.3006097 L768.740185,79.5204541 C764.529699,81.7479217 759.303762,80.1668992 757.047916,75.9831476 C755.946347,73.9601908 755.701797,71.5826616 756.368643,69.3792064 C757.035489,67.1757513 758.558452,65.3290228 760.598901,64.2496432 L791.258629,48.1160745 C799.272499,42.4119925 810.103164,42.6579945 817.847714,48.7200049 C824.814019,56.1268853 830.440137,64.679502 834.476719,73.998805 L862.971211,127.31723 C864.066268,129.350739 864.297903,131.736491 863.614355,133.941359 C862.930807,136.146227 861.389053,137.986424 859.333617,139.050734 C858.089471,139.64852 856.730617,139.972212 855.349584,139.999768 L855.349584,139.999768 Z" id="Path" fill="#FFFFFF" opacity="0.5"></path>
                    <path d="M520.69462,396 C517.496879,395.991465 514.563099,394.22404 513.060167,391.400706 L452.331568,276.418348 C440.099093,253.508655 439.925583,253.595434 432.377885,257.587275 L401.4063,273.814974 C397.341628,275.162872 392.901753,273.342575 390.952105,269.528877 C389.002458,265.715178 390.126307,261.049008 393.598337,258.541845 L423.875882,242.227367 C446.865994,229.991509 455.454753,246.045649 467.253452,268.261109 L527.982051,383.243467 C529.411916,385.929488 529.330748,389.168428 527.768139,391.779416 C526.205531,394.390404 523.38983,395.991892 520.347599,396 L520.69462,396 Z" id="Path" fill="#FFFFFF" opacity="0.5"></path>
                </g>
            </g>
        </g>
    </g>
</svg>